# xmcd
# Copyright (C) 1995-1998 Ti Kan
#
# Track frame offsets:
#       150
#       88022
#       155020
#       220748
#
# Disc length: 3568 seconds
#
# Revision: 0
# Processed by: cddbd v1.5.2PL0 Copyright (c) Steve Scherf et al.
# Submitted via: CD-Transfer v1.0
#
DISCID=2e0dee04
DTITLE=Michael Friedel - 
DYEAR=1900
DGENRE=
TTITLE0=Hitclub 05.09.10 - 001
TTITLE1=Hitclub 05.09.10 - 002
TTITLE2=Hitclub 05.09.10 - 003
TTITLE3=Hitclub 05.09.10 - 004
EXTD=
EXTT0=
EXTT1=
EXTT2=
EXTT3=
PLAYORDER=
